<svg xmlns="http://www.w3.org/2000/svg" fill="none" viewBox="0 0 120 53" height="53" width="120">
<g clip-path="url(#clip0_269_4202)">
<path fill="black" d="M1.08854 49.3329H2.85842V48.3868H1.08854V46.572H2.99747V45.5484H0V52.384H3.09281V51.3524H1.08854V49.3329Z"></path>
<path fill="black" d="M6.00887 47.1902C6.1221 46.9656 6.26313 46.7847 6.43396 46.6535C6.60479 46.5223 6.80343 46.4567 7.02988 46.4567C7.43907 46.4567 7.77279 46.6476 8.03301 47.0252L8.68653 46.2142C8.50179 45.9459 8.26541 45.7372 7.97739 45.5921C7.68539 45.447 7.34969 45.3754 6.96433 45.3754C6.57897 45.3754 6.2532 45.4649 5.94729 45.6418C5.6394 45.8187 5.38316 46.0671 5.16664 46.3852C4.95211 46.7032 4.78525 47.0829 4.67004 47.5241C4.55284 47.9654 4.49524 48.4484 4.49524 48.9692C4.49524 49.4899 4.55284 49.971 4.67004 50.4083C4.78525 50.8456 4.95012 51.2252 5.16267 51.5412C5.37323 51.8613 5.63146 52.1097 5.93935 52.2906C6.24327 52.4715 6.58691 52.5609 6.96433 52.5609C7.37948 52.5609 7.7271 52.4775 8.00122 52.3085C8.27535 52.1435 8.49981 51.9229 8.67858 51.6526L8.02506 50.8714C7.91978 51.0384 7.78471 51.1795 7.62381 51.2968C7.46092 51.412 7.27222 51.4717 7.04974 51.4717C6.82727 51.4717 6.61472 51.4061 6.43992 51.2749C6.2671 51.1437 6.12408 50.9628 6.01086 50.7382C5.89565 50.5136 5.81222 50.2473 5.75461 49.9412C5.69701 49.637 5.6692 49.313 5.6692 48.9712C5.6692 48.6293 5.69701 48.2973 5.75461 47.9912C5.81222 47.6851 5.89565 47.4188 6.01086 47.1942"></path>
<path fill="black" d="M11.2509 47.1902C11.3642 46.9656 11.5052 46.7847 11.676 46.6535C11.8469 46.5223 12.0455 46.4567 12.2719 46.4567C12.6811 46.4567 13.0149 46.6476 13.2751 47.0252L13.9286 46.2142C13.7439 45.9459 13.5075 45.7372 13.2195 45.5921C12.9294 45.447 12.5918 45.3754 12.2064 45.3754C11.821 45.3754 11.4953 45.4649 11.1894 45.6418C10.8815 45.8187 10.6252 46.0671 10.4087 46.3852C10.1942 46.7032 10.0273 47.0829 9.91211 47.5241C9.79491 47.9654 9.7373 48.4484 9.7373 48.9692C9.7373 49.49 9.79491 49.971 9.91211 50.4083C10.0273 50.8456 10.1922 51.2252 10.4047 51.5412C10.6153 51.8613 10.8735 52.1097 11.1814 52.2906C11.4853 52.4715 11.829 52.5609 12.2064 52.5609C12.6215 52.5609 12.9692 52.4775 13.2433 52.3085C13.5194 52.1435 13.7419 51.9229 13.9206 51.6526L13.2671 50.8714C13.1618 51.0384 13.0268 51.1795 12.8659 51.2968C12.703 51.412 12.5143 51.4717 12.2918 51.4717C12.0693 51.4717 11.8568 51.4061 11.682 51.2749C11.5092 51.1437 11.3661 50.9628 11.2529 50.7382C11.1377 50.5136 11.0543 50.2473 10.9967 49.9412C10.9391 49.637 10.9113 49.313 10.9113 48.9712C10.9113 48.6293 10.9391 48.2973 10.9967 47.9912C11.0543 47.6851 11.1377 47.4188 11.2529 47.1942"></path>
<path fill="black" d="M16.4732 49.3329H18.2431V48.3868H16.4732V46.572H18.3821V45.5484H15.3846V52.384H18.4775V51.3524H16.4732V49.3329Z"></path>
<path fill="black" d="M21.316 45.5484H20.1719V52.384H23.1594V51.3127H21.316V45.5484Z"></path>
<path fill="black" d="M25.7059 45.5484H24.5618V52.384H27.5513V51.3127H25.7059V45.5484Z"></path>
<path fill="black" d="M30.0382 49.3329H31.8081V48.3868H30.0382V46.572H31.9511V45.5484H28.9497V52.384H32.0465V51.3524H30.0382V49.3329Z"></path>
<path fill="black" d="M36.9449 50.4063H36.9171L35.036 45.5484H33.7389V52.384H34.7599L34.742 47.5559H34.7698L36.6708 52.384H37.9202V45.5484H36.937L36.9449 50.4063Z"></path>
<path fill="black" d="M39.6524 46.572H41.754L39.5015 51.4279V52.386H43.0015V51.3425H40.7608L43.0015 46.4846V45.5484H39.6524V46.572Z"></path>
<path fill="black" d="M45.6413 50.0286L46.3703 46.6396H46.4081L47.1172 50.0286H45.6413ZM45.689 45.5484L44.0244 52.384H45.1586L45.5003 50.937H47.2602L47.59 52.384H48.7719L47.1371 45.5484H45.689Z"></path>
<path fill="black" d="M55.321 50.5514H55.2833L53.9961 45.5484H52.4725V52.386H53.5035L53.4856 47.1325H53.5134L54.8284 52.386H55.7183L57.0611 47.1325H57.0909L57.071 52.386H58.1794V45.5484H56.5784L55.321 50.5514Z"></path>
<path fill="black" d="M61.1491 50.0286L61.8762 46.6396H61.9159L62.625 50.0286H61.1491ZM61.1968 45.5484L59.5322 52.384H60.6684L61.0061 50.937H62.7681L63.0998 52.384H64.2817L62.6449 45.5484H61.1968Z"></path>
<path fill="black" d="M68.7034 50.0246C68.6319 50.3228 68.5286 50.5732 68.3955 50.772C68.2644 50.9728 68.1055 51.1218 67.9227 51.2212C67.74 51.3206 67.5413 51.3703 67.3268 51.3703H66.7885V46.5601H67.3268C67.5413 46.5601 67.74 46.6098 67.9227 46.7112C68.1055 46.8105 68.2644 46.9596 68.3955 47.1584C68.5266 47.3591 68.6319 47.6096 68.7034 47.9117C68.7769 48.2139 68.8126 48.5677 68.8126 48.9732C68.8126 49.3786 68.7769 49.7205 68.7034 50.0207M67.3268 45.5484H65.6423V52.384H67.3169C68.1809 52.384 68.8365 52.0859 69.2814 51.4916C69.7264 50.8952 69.9488 50.0564 69.9488 48.9751C69.9488 47.8938 69.7264 47.0511 69.2814 46.4488C68.8384 45.8485 68.1849 45.5464 67.3268 45.5464"></path>
<path fill="black" d="M72.7775 49.3329H74.5474V48.3868H72.7775V46.572H74.6884V45.5484H71.689V52.384H74.7838V51.3524H72.7775V49.3329Z"></path>
<path fill="black" d="M80.1192 45.5484H78.985V52.386H80.1192V45.5484Z"></path>
<path fill="black" d="M85.3513 50.4063H85.3235L83.4404 45.5484H82.1453V52.384H83.1663L83.1464 47.5559H83.1742L85.0772 52.384H86.3266V45.5484H85.3414L85.3513 50.4063Z"></path>
<path fill="black" d="M91.9938 45.5484H90.8596V52.386H91.9938V45.5484Z"></path>
<path fill="black" d="M93.3187 46.5343H94.5781V52.384H95.6925V46.5343H96.9518V45.5484H93.3187V46.5343Z"></path>
<path fill="black" d="M99.0614 50.0286L99.7884 46.6396H99.8262L100.537 50.0286H99.0614ZM99.1071 45.5484L97.4425 52.384H98.5787L98.9164 50.937H100.678L101.008 52.384H102.192L100.555 45.5484H99.1071Z"></path>
<path fill="black" d="M104.701 45.5484H103.557V52.384H106.544V51.3127H104.701V45.5484Z"></path>
<path fill="black" d="M109.128 48.5796L109.099 48.5995L108.098 45.5484H106.866L108.54 49.7682V52.384H109.659V49.7682L111.351 45.5484H110.151L109.128 48.5796Z"></path>
<path fill="black" d="M69.8654 35.5542H48.7659V0.574844H44.521V39.5555H69.8654V35.5542Z"></path>
<path fill="black" d="M87.9356 14.2164C93.4022 14.2164 96.2963 18.5853 96.781 23.7374H78.9412C79.5232 18.2613 83.1643 14.2164 87.9336 14.2164M99.991 34.8804L97.4167 32.533C96.5724 33.4393 95.6647 34.2265 94.6536 34.8645C92.989 35.912 91.0642 36.5242 88.6865 36.5242C83.8158 36.5242 79.5272 33.0756 78.9452 27.1205H100.907C100.96 26.4625 100.96 26.0213 100.96 25.6396C100.96 17.3351 96.2387 10.6703 88.0429 10.6703C80.3853 10.6703 74.7618 17.2218 74.7618 25.427C74.7618 34.2265 80.9733 40.1895 88.5792 40.1895C93.8292 40.1895 97.2121 38.0627 99.993 34.8804"></path>
<path fill="black" d="M106.163 3.94995L109.385 7.24355L112.716 3.83466L109.494 0.558945L106.163 3.94995Z"></path>
<path fill="black" d="M111.468 11.2627H107.347V39.5416H111.468V11.2627Z"></path>
<path fill="black" d="M117.205 5.78061C115.924 5.78061 114.885 4.7172 114.885 3.41128C114.885 2.10537 115.924 1.04394 117.205 1.04394C118.486 1.04394 119.525 2.10537 119.525 3.41128C119.525 4.7172 118.486 5.78061 117.205 5.78061ZM117.205 0.558945C115.664 0.558945 114.41 1.83703 114.41 3.41128C114.41 4.98553 115.664 6.26561 117.205 6.26561C118.747 6.26561 120 4.98553 120 3.41128C120 1.83703 118.747 0.558945 117.205 0.558945Z"></path>
<path fill="black" d="M117.668 3.10518H116.816V2.23656H117.668V3.10518ZM116.333 1.73765V5.08691H116.82V3.60012H117.306L117.67 5.08691H118.157L117.791 3.60012L118.157 3.22643V2.11133L117.791 1.73964H116.333V1.73765Z"></path>
<path fill="#10CFC9" d="M16.1176 12.98H18.9065L28.0697 25.3912V12.98H31.0374V30.9229H28.5127L19.0753 18.158V30.9229H16.1196V12.98H16.1176ZM9.58435 30.9229H6.36639V0.769638H0V39.5555H38.0017V0.769638H9.58435V30.9229Z"></path>
</g>
<defs>
<clipPath id="clip0_269_4202">
<rect transform="translate(0 0.558945)" fill="white" height="52" width="120"></rect>
</clipPath>
</defs>
</svg>
